<svg fill="none" height="56" viewBox="0 0 64 56" width="64" xmlns="http://www.w3.org/2000/svg"><path d="m16.3403.105225-16.3403 26.829275h32.6806z" fill="#120078"/><path d="m63.9999.105225h-28.5956v26.829275h28.5956z" fill="#9d0191"/><path d="m63.998 44.3756c0 5.9238-4.8783 10.7297-10.8932 10.7297-6.0156 0-10.8939-4.8059-10.8939-10.7297 0-5.9279 4.8783-10.7338 10.8939-10.7338 6.0149 0 10.8932 4.8059 10.8932 10.7338z" fill="#fecd1a"/><path d="m28.9667 33.6418h-22.52934c-3.53876 0-6.43736 1.7568-6.43736 3.9022v13.6591c0 2.146 2.8986 3.9022 6.43736 3.9022h22.52934c3.5397 0 6.4373-1.7562 6.4373-3.9022v-13.6591c0-2.1454-2.8976-3.9022-6.4373-3.9022z" fill="#fd3a69"/></svg>