<svg fill="none" height="51" viewBox="0 0 212 51" width="212" xmlns="http://www.w3.org/2000/svg"><g fill="#fff"><path d="m73.98 17.52h-5.24l-.84 2.48h-3.58l5.08-14.04h3.96l5.08 14.04h-3.62zm-.88-2.64-1.74-5.14-1.72 5.14zm11.4261 5.28c-.9733 0-1.84-.1667-2.6-.5s-1.36-.7867-1.8-1.36c-.44-.5867-.6867-1.24-.74-1.96h3.38c.04.3867.22.7.54.94s.7133.36 1.18.36c.4267 0 .7533-.08.98-.24.24-.1733.36-.3933.36-.66 0-.32-.1667-.5533-.5-.7-.3333-.16-.8733-.3333-1.62-.52-.8-.1867-1.4667-.38-2-.58-.5333-.2133-.9933-.54-1.38-.98-.3867-.4533-.58-1.06-.58-1.82 0-.64.1733-1.22.52-1.74.36-.53333.88-.95333 1.56-1.26.6933-.30667 1.5133-.46 2.46-.46 1.4 0 2.5.34667 3.3 1.04.8133.6933 1.28 1.6133 1.4 2.76h-3.16c-.0533-.3867-.2267-.6933-.52-.92-.28-.2267-.6533-.34-1.12-.34-.4 0-.7067.08-.92.24-.2133.1467-.32.3533-.32.62 0 .32.1667.56.5.72.3467.16.88.32 1.6.48.8267.2133 1.5.4267 2.02.64.52.2.9733.5333 1.36 1 .4.4533.6067 1.0667.62 1.84 0 .6533-.1867 1.24-.56 1.76-.36.5067-.8867.9067-1.58 1.2-.68.2933-1.4733.44-2.38.44zm20.8519-11.44c1.387 0 2.487.42 3.3 1.26.827.84 1.24 2.0067 1.24 3.5v6.52h-3.4v-6.06c0-.72-.193-1.2733-.58-1.66-.373-.4-.893-.6-1.56-.6-.666 0-1.193.2-1.58.6-.373.3867-.56.94-.56 1.66v6.06h-3.3996v-6.06c0-.72-.1933-1.2733-.58-1.66-.3733-.4-.8933-.6-1.56-.6-.6666 0-1.1933.2-1.58.6-.3733.3867-.56.94-.56 1.66v6.06h-3.42v-11.16h3.42v1.4c.3467-.46667.8-.83333 1.36-1.1.56-.28 1.1934-.42 1.9-.42.84 0 1.5867.18 2.2396.54.667.36 1.187.8733 1.56 1.54.387-.6133.914-1.11333 1.58-1.5.667-.38667 1.394-.58 2.18-.58zm6.252 5.68c0-1.1467.214-2.1533.64-3.02.44-.8667 1.034-1.53333 1.78-2 .747-.46667 1.58-.7 2.5-.7.787 0 1.474.16 2.06.48.6.32 1.06.74 1.38 1.26v-1.58h3.42v11.16h-3.42v-1.58c-.333.52-.8.94-1.4 1.26-.586.32-1.273.48-2.06.48-.906 0-1.733-.2333-2.48-.7-.746-.48-1.34-1.1533-1.78-2.02-.426-.88-.64-1.8933-.64-3.04zm8.36.02c0-.8533-.24-1.5267-.72-2.02-.466-.4933-1.04-.74-1.72-.74s-1.26.2467-1.74.74c-.466.48-.7 1.1467-.7 2s.234 1.5333.7 2.04c.48.4933 1.06.74 1.74.74s1.254-.2467 1.72-.74c.48-.4933.72-1.1667.72-2.02zm5.215-.02c0-1.1467.213-2.1533.64-3.02.44-.8667 1.033-1.53333 1.78-2 .746-.46667 1.58-.7 2.5-.7.733 0 1.4.15333 2 .46.613.30667 1.093.72 1.44 1.24v-5.18h3.42v14.8h-3.42v-1.6c-.32.5333-.78.96-1.38 1.28-.587.32-1.274.48-2.06.48-.92 0-1.754-.2333-2.5-.7-.747-.48-1.34-1.1533-1.78-2.02-.427-.88-.64-1.8933-.64-3.04zm8.36.02c0-.8533-.24-1.5267-.72-2.02-.467-.4933-1.04-.74-1.72-.74s-1.26.2467-1.74.74c-.467.48-.7 1.1467-.7 2s.233 1.5333.7 2.04c.48.4933 1.06.74 1.74.74s1.253-.2467 1.72-.74c.48-.4933.72-1.1667.72-2.02zm7.614-6.74c-.6 0-1.094-.17333-1.48-.52-.374-.36-.56-.8-.56-1.32 0-.53333.186-.97333.56-1.32.386-.36.88-.54 1.48-.54.586 0 1.066.18 1.44.54.386.34667.58.78667.58 1.32 0 .52-.194.96-.58 1.32-.374.34667-.854.52-1.44.52zm1.7 1.16v11.16h-3.42v-11.16zm13.878 0-7 16.46h-3.68l2.56-5.68-4.54-10.78h3.82l2.58 6.98 2.56-6.98zm.557 5.56c0-1.1467.213-2.1533.64-3.02.44-.8667 1.033-1.53333 1.78-2s1.58-.7 2.5-.7c.787 0 1.473.16 2.06.48.6.32 1.06.74 1.38 1.26v-1.58h3.42v11.16h-3.42v-1.58c-.333.52-.8.94-1.4 1.26-.587.32-1.273.48-2.06.48-.907 0-1.733-.2333-2.48-.7-.747-.48-1.34-1.1533-1.78-2.02-.427-.88-.64-1.8933-.64-3.04zm8.36.02c0-.8533-.24-1.5267-.72-2.02-.467-.4933-1.04-.74-1.72-.74s-1.26.2467-1.74.74c-.467.48-.7 1.1467-.7 2s.233 1.5333.7 2.04c.48.4933 1.06.74 1.74.74s1.253-.2467 1.72-.74c.48-.4933.72-1.1667.72-2.02zm-90.334 16.54v2.74h-3.72v11.3h-3.42v-11.3h-3.72v-2.74zm12.2364 8.28c0 .32-.02.6533-.06 1h-7.74c.0533.6933.2733 1.2267.66 1.6.4.36.8867.54 1.46.54.8533 0 1.4467-.36 1.78-1.08h3.64c-.1867.7333-.5267 1.3933-1.02 1.98-.48.5867-1.0867 1.0467-1.82 1.38s-1.5533.5-2.46.5c-1.0933 0-2.0667-.2333-2.92-.7s-1.52-1.1333-2-2-.72-1.88-.72-3.04.2333-2.1733.7-3.04c.48-.8667 1.1467-1.5333 2-2s1.8333-.7 2.94-.7c1.08 0 2.04.2267 2.88.68s1.4933 1.1 1.96 1.94c.48.84.72 1.82.72 2.94zm-3.5-.9c0-.5867-.2-1.0533-.6-1.4s-.9-.52-1.5-.52c-.5733 0-1.06.1667-1.46.5-.3867.3333-.6267.8067-.72 1.42zm4.6242 1.08c0-1.16.2334-2.1733.7-3.04.48-.8667 1.14-1.5333 1.98-2 .8534-.4667 1.8267-.7 2.92-.7 1.4 0 2.5667.3667 3.5 1.1.9467.7333 1.5667 1.7667 1.86 3.1h-3.64c-.3066-.8533-.9-1.28-1.78-1.28-.6266 0-1.1266.2467-1.5.74-.3733.48-.56 1.1733-.56 2.08s.1867 1.6067.56 2.1c.3734.48.8734.72 1.5.72.88 0 1.4734-.4267 1.78-1.28h3.64c-.2933 1.3067-.9133 2.3333-1.86 3.08-.9466.7467-2.1133 1.12-3.5 1.12-1.0933 0-2.0666-.2333-2.92-.7-.84-.4667-1.5-1.1333-1.98-2-.4666-.8667-.7-1.88-.7-3.04zm19.6494-5.7c1.28 0 2.307.4267 3.08 1.28.773.84 1.16 2 1.16 3.48v6.52h-3.4v-6.06c0-.7467-.193-1.3267-.58-1.74s-.907-.62-1.56-.62-1.173.2067-1.56.62-.58.9933-.58 1.74v6.06h-3.42v-14.8h3.42v5.14c.347-.4933.82-.8867 1.42-1.18s1.273-.44 2.02-.44zm13.417 0c1.306 0 2.346.4267 3.12 1.28.786.84 1.18 2 1.18 3.48v6.52h-3.4v-6.06c0-.7467-.194-1.3267-.58-1.74-.387-.4133-.907-.62-1.56-.62-.654 0-1.174.2067-1.56.62-.387.4133-.58.9933-.58 1.74v6.06h-3.42v-11.16h3.42v1.48c.346-.4933.813-.88 1.4-1.16.586-.2933 1.246-.44 1.98-.44zm11.756 11.44c-1.093 0-2.08-.2333-2.96-.7-.867-.4667-1.553-1.1333-2.06-2-.493-.8667-.74-1.88-.74-3.04 0-1.1467.253-2.1533.76-3.02.507-.88 1.2-1.5533 2.08-2.02s1.867-.7 2.96-.7 2.08.2333 2.96.7 1.573 1.14 2.08 2.02c.507.8667.76 1.8733.76 3.02s-.26 2.16-.78 3.04c-.507.8667-1.207 1.5333-2.1 2-.88.4667-1.867.7-2.96.7zm0-2.96c.653 0 1.207-.24 1.66-.72.467-.48.7-1.1667.7-2.06s-.227-1.58-.68-2.06c-.44-.48-.987-.72-1.64-.72-.667 0-1.22.24-1.66.72-.44.4667-.66 1.1533-.66 2.06 0 .8933.213 1.58.64 2.06.44.48.987.72 1.64.72zm11.075-12v14.8h-3.42v-14.8zm7.558 14.96c-1.093 0-2.08-.2333-2.96-.7-.867-.4667-1.553-1.1333-2.06-2-.493-.8667-.74-1.88-.74-3.04 0-1.1467.253-2.1533.76-3.02.507-.88 1.2-1.5533 2.08-2.02s1.867-.7 2.96-.7 2.08.2333 2.96.7 1.573 1.14 2.08 2.02c.507.8667.76 1.8733.76 3.02s-.26 2.16-.78 3.04c-.507.8667-1.207 1.5333-2.1 2-.88.4667-1.867.7-2.96.7zm0-2.96c.653 0 1.207-.24 1.66-.72.467-.48.7-1.1667.7-2.06s-.227-1.58-.68-2.06c-.44-.48-.987-.72-1.64-.72-.667 0-1.22.24-1.66.72-.44.4667-.66 1.1533-.66 2.06 0 .8933.213 1.58.64 2.06.44.48.987.72 1.64.72zm11.894-8.52c.787 0 1.474.16 2.06.48.6.32 1.06.74 1.38 1.26v-1.58h3.42v11.14c0 1.0267-.206 1.9533-.62 2.78-.4.84-1.02 1.5067-1.86 2-.826.4933-1.86.74-3.1.74-1.653 0-2.993-.3933-4.02-1.18-1.026-.7733-1.613-1.8267-1.76-3.16h3.38c.107.4267.36.76.76 1 .4.2533.894.38 1.48.38.707 0 1.267-.2067 1.68-.62.427-.4.64-1.0467.64-1.94v-1.58c-.333.52-.793.9467-1.38 1.28-.586.32-1.273.48-2.06.48-.92 0-1.753-.2333-2.5-.7-.746-.48-1.34-1.1533-1.78-2.02-.426-.88-.64-1.8933-.64-3.04s.214-2.1533.64-3.02c.44-.8667 1.034-1.5333 1.78-2 .747-.4667 1.58-.7 2.5-.7zm3.44 5.74c0-.8533-.24-1.5267-.72-2.02-.466-.4933-1.04-.74-1.72-.74s-1.26.2467-1.74.74c-.466.48-.7 1.1467-.7 2s.234 1.5333.7 2.04c.48.4933 1.06.74 1.74.74s1.254-.2467 1.72-.74c.48-.4933.72-1.1667.72-2.02zm7.615-6.74c-.6 0-1.094-.1733-1.48-.52-.374-.36-.56-.8-.56-1.32 0-.5333.186-.9733.56-1.32.386-.36.88-.54 1.48-.54.586 0 1.066.18 1.44.54.386.3467.58.7867.58 1.32 0 .52-.194.96-.58 1.32-.374.3467-.854.52-1.44.52zm1.7 1.16v11.16h-3.42v-11.16zm12.998 5.4c0 .32-.02.6533-.06 1h-7.74c.053.6933.273 1.2267.66 1.6.4.36.887.54 1.46.54.853 0 1.447-.36 1.78-1.08h3.64c-.187.7333-.527 1.3933-1.02 1.98-.48.5867-1.087 1.0467-1.82 1.38s-1.553.5-2.46.5c-1.093 0-2.067-.2333-2.92-.7s-1.52-1.1333-2-2-.72-1.88-.72-3.04.233-2.1733.7-3.04c.48-.8667 1.147-1.5333 2-2s1.833-.7 2.94-.7c1.08 0 2.04.2267 2.88.68s1.493 1.1 1.96 1.94c.48.84.72 1.82.72 2.94zm-3.5-.9c0-.5867-.2-1.0533-.6-1.4s-.9-.52-1.5-.52c-.573 0-1.06.1667-1.46.5-.387.3333-.627.8067-.72 1.42zm9.844 6.82c-.973 0-1.84-.1667-2.6-.5s-1.36-.7867-1.8-1.36c-.44-.5867-.686-1.24-.74-1.96h3.38c.04.3867.22.7.54.94s.714.36 1.18.36c.427 0 .754-.08.98-.24.24-.1733.36-.3933.36-.66 0-.32-.166-.5533-.5-.7-.333-.16-.873-.3333-1.62-.52-.8-.1867-1.466-.38-2-.58-.533-.2133-.993-.54-1.38-.98-.386-.4533-.58-1.06-.58-1.82 0-.64.174-1.22.52-1.74.36-.5333.88-.9533 1.56-1.26.694-.3067 1.514-.46 2.46-.46 1.4 0 2.5.3467 3.3 1.04.814.6933 1.28 1.6133 1.4 2.76h-3.16c-.053-.3867-.226-.6933-.52-.92-.28-.2267-.653-.34-1.12-.34-.4 0-.706.08-.92.24-.213.1467-.32.3533-.32.62 0 .32.167.56.5.72.347.16.88.32 1.6.48.827.2133 1.5.4267 2.02.64.52.2.974.5333 1.36 1 .4.4533.607 1.0667.62 1.84 0 .6533-.186 1.24-.56 1.76-.36.5067-.886.9067-1.58 1.2-.68.2933-1.473.44-2.38.44z"/><path d="m12 3.78174-12 19.84036h24z"/><path d="m47 3.78174h-21v19.84036h21z"/><path d="m47 36.5196c0 4.3806-3.5825 7.9345-7.9998 7.9345-4.4177 0-8.0002-3.5539-8.0002-7.9345 0-4.3837 3.5825-7.9376 8.0002-7.9376 4.4173 0 7.9998 3.5539 7.9998 7.9376z"/><path d="m21.2725 28.582h-16.54503c-2.5988 0-4.72747 1.2991-4.72747 2.8856v10.1009c0 1.587 2.12867 2.8856 4.72747 2.8856h16.54503c2.5995 0 4.7275-1.2986 4.7275-2.8856v-10.1009c0-1.5865-2.128-2.8856-4.7275-2.8856z"/></g></svg>