<svg width="195" height="38" viewBox="0 0 195 38" fill="none" xmlns="http://www.w3.org/2000/svg">
<path d="M63.5576 4.16064L60.9233 12H59.0762L62.5293 2.75781H63.71L63.5576 4.16064ZM65.7603 12L63.1133 4.16064L62.9546 2.75781H64.1416L67.6138 12H65.7603ZM65.6396 8.56592V9.94336H60.6821V8.56592H65.6396ZM72.2158 10.1211C72.2158 9.97721 72.1777 9.84814 72.1016 9.73389C72.0254 9.61963 71.8815 9.51595 71.6699 9.42285C71.4626 9.32552 71.1579 9.23454 70.7559 9.1499C70.4004 9.07373 70.0724 8.97852 69.772 8.86426C69.4715 8.75 69.2134 8.61247 68.9976 8.45166C68.7817 8.28662 68.6125 8.09408 68.4897 7.87402C68.3713 7.64974 68.312 7.3916 68.312 7.09961C68.312 6.81608 68.3734 6.54948 68.4961 6.2998C68.6188 6.0459 68.7965 5.82373 69.0293 5.6333C69.262 5.43864 69.5456 5.2863 69.8799 5.17627C70.2142 5.06201 70.5908 5.00488 71.0098 5.00488C71.5938 5.00488 72.0952 5.1001 72.5142 5.29053C72.9373 5.48096 73.2611 5.74333 73.4854 6.07764C73.7096 6.40771 73.8218 6.78011 73.8218 7.19482H72.146C72.146 7.01286 72.1037 6.84782 72.019 6.69971C71.9386 6.5516 71.8138 6.43311 71.6445 6.34424C71.4753 6.25114 71.2616 6.20459 71.0034 6.20459C70.7707 6.20459 70.5739 6.24268 70.4131 6.31885C70.2565 6.39502 70.138 6.49447 70.0576 6.61719C69.9772 6.73991 69.937 6.87533 69.937 7.02344C69.937 7.13346 69.9582 7.23291 70.0005 7.32178C70.047 7.40641 70.1211 7.4847 70.2227 7.55664C70.3242 7.62858 70.4618 7.69417 70.6353 7.75342C70.813 7.81266 71.0309 7.86979 71.2891 7.9248C71.8011 8.02637 72.2476 8.16178 72.6284 8.33105C73.0135 8.49609 73.314 8.71615 73.5298 8.99121C73.7456 9.26628 73.8535 9.61751 73.8535 10.0449C73.8535 10.3496 73.7879 10.6289 73.6567 10.8828C73.5256 11.1325 73.3351 11.3504 73.0854 11.5366C72.8358 11.7228 72.5374 11.8688 72.1904 11.9746C71.8434 12.0762 71.452 12.127 71.0161 12.127C70.3856 12.127 69.8524 12.0148 69.4165 11.7905C68.9806 11.562 68.6506 11.2743 68.4263 10.9272C68.202 10.576 68.0898 10.2121 68.0898 9.83545H69.6958C69.7085 10.1021 69.7804 10.3158 69.9116 10.4766C70.0428 10.6374 70.2078 10.7537 70.4067 10.8257C70.6099 10.8934 70.8236 10.9272 71.0479 10.9272C71.3018 10.9272 71.5155 10.8934 71.689 10.8257C71.8625 10.7537 71.9937 10.6585 72.0825 10.54C72.1714 10.4173 72.2158 10.2777 72.2158 10.1211ZM76.7988 6.54102V12H75.123V5.13184H76.7036L76.7988 6.54102ZM76.5513 8.31836H76.0371C76.0371 7.84017 76.0942 7.40007 76.2085 6.99805C76.327 6.59603 76.5005 6.24691 76.729 5.95068C76.9575 5.65023 77.2389 5.41748 77.5732 5.25244C77.9118 5.0874 78.3032 5.00488 78.7476 5.00488C79.0565 5.00488 79.34 5.05143 79.5981 5.14453C79.8563 5.2334 80.0785 5.37516 80.2646 5.56982C80.4551 5.76025 80.6011 6.00993 80.7026 6.31885C80.8042 6.62354 80.855 6.98958 80.855 7.41699V12H79.1792V7.58838C79.1792 7.26676 79.1326 7.01497 79.0396 6.83301C78.9507 6.65104 78.8216 6.52409 78.6523 6.45215C78.4831 6.37598 78.2799 6.33789 78.043 6.33789C77.7806 6.33789 77.5542 6.39079 77.3638 6.49658C77.1776 6.59814 77.0231 6.73991 76.9004 6.92188C76.7819 7.10384 76.693 7.31331 76.6338 7.55029C76.5788 7.78727 76.5513 8.04329 76.5513 8.31836ZM80.728 8.00732L80.0361 8.13428C80.0404 7.70264 80.0996 7.2985 80.2139 6.92188C80.3281 6.54102 80.4953 6.20882 80.7153 5.92529C80.9396 5.63753 81.2168 5.41325 81.5469 5.25244C81.8812 5.0874 82.2663 5.00488 82.7021 5.00488C83.0407 5.00488 83.3454 5.05355 83.6162 5.15088C83.8913 5.24398 84.1261 5.39421 84.3208 5.60156C84.5155 5.80469 84.6636 6.06917 84.7651 6.39502C84.8709 6.72087 84.9238 7.11865 84.9238 7.58838V12H83.2354V7.58203C83.2354 7.24772 83.1888 6.9917 83.0957 6.81396C83.0068 6.63623 82.8778 6.51351 82.7085 6.4458C82.5392 6.37386 82.3403 6.33789 82.1118 6.33789C81.8791 6.33789 81.6759 6.38232 81.5024 6.47119C81.3332 6.55583 81.1893 6.67432 81.0708 6.82666C80.9565 6.979 80.8698 7.15674 80.8105 7.35986C80.7555 7.55876 80.728 7.77458 80.728 8.00732ZM90.2114 10.54V7.37256C90.2114 7.13981 90.1712 6.9388 90.0908 6.76953C90.0104 6.60026 89.8877 6.46908 89.7227 6.37598C89.5576 6.28288 89.3481 6.23633 89.0942 6.23633C88.87 6.23633 88.6732 6.27441 88.5039 6.35059C88.3389 6.42676 88.2119 6.53467 88.123 6.67432C88.0342 6.80973 87.9897 6.96631 87.9897 7.14404H86.3076C86.3076 6.86051 86.3753 6.5918 86.5107 6.33789C86.6462 6.07975 86.8387 5.85124 87.0884 5.65234C87.3423 5.44922 87.6449 5.29053 87.9961 5.17627C88.3516 5.06201 88.7493 5.00488 89.1895 5.00488C89.71 5.00488 90.1733 5.09375 90.5796 5.27148C90.9901 5.44499 91.3117 5.70736 91.5444 6.05859C91.7814 6.40983 91.8999 6.85205 91.8999 7.38525V10.3813C91.8999 10.7241 91.9211 11.0182 91.9634 11.2637C92.0099 11.5049 92.0776 11.7144 92.1665 11.8921V12H90.459C90.3786 11.8265 90.3172 11.6064 90.2749 11.3398C90.2326 11.069 90.2114 10.8024 90.2114 10.54ZM90.4463 7.81689L90.459 8.81348H89.3989C89.1366 8.81348 88.9059 8.84098 88.707 8.896C88.5081 8.94678 88.3452 9.02295 88.2183 9.12451C88.0913 9.22184 87.9961 9.34033 87.9326 9.47998C87.8691 9.6154 87.8374 9.76986 87.8374 9.94336C87.8374 10.1126 87.8755 10.265 87.9517 10.4004C88.0321 10.5358 88.1463 10.6437 88.2944 10.7241C88.4468 10.8003 88.6245 10.8384 88.8276 10.8384C89.1239 10.8384 89.382 10.7791 89.6021 10.6606C89.8221 10.5379 89.9935 10.3898 90.1162 10.2163C90.2389 10.0428 90.3045 9.87777 90.313 9.72119L90.7954 10.4448C90.7362 10.6183 90.6473 10.8024 90.5288 10.9971C90.4103 11.1917 90.258 11.3737 90.0718 11.543C89.8856 11.7122 89.6613 11.8519 89.3989 11.9619C89.1366 12.0719 88.8319 12.127 88.4849 12.127C88.0405 12.127 87.6427 12.0381 87.2915 11.8604C86.9403 11.6826 86.6631 11.4393 86.46 11.1304C86.2568 10.8215 86.1553 10.4702 86.1553 10.0767C86.1553 9.71273 86.223 9.39111 86.3584 9.11182C86.4938 8.83252 86.6948 8.59766 86.9614 8.40723C87.228 8.21257 87.5581 8.06657 87.9517 7.96924C88.3494 7.86768 88.8044 7.81689 89.3164 7.81689H90.4463ZM97.5303 10.54V2.25H99.2188V12H97.6953L97.5303 10.54ZM93.1187 8.64844V8.51514C93.1187 7.9904 93.1779 7.51432 93.2964 7.08691C93.4191 6.65527 93.5968 6.28499 93.8296 5.97607C94.0623 5.66715 94.3438 5.42806 94.6738 5.25879C95.0081 5.08952 95.3869 5.00488 95.8101 5.00488C96.2205 5.00488 96.5781 5.0874 96.8828 5.25244C97.1917 5.41748 97.4541 5.65234 97.6699 5.95703C97.89 6.26172 98.0656 6.62354 98.1968 7.04248C98.328 7.45719 98.4232 7.91423 98.4824 8.41357V8.77539C98.4232 9.26204 98.328 9.7085 98.1968 10.1147C98.0656 10.521 97.89 10.8765 97.6699 11.1812C97.4541 11.4816 97.1917 11.7144 96.8828 11.8794C96.5739 12.0444 96.2121 12.127 95.7974 12.127C95.3784 12.127 95.0018 12.0402 94.6675 11.8667C94.3374 11.6932 94.056 11.4499 93.8232 11.1367C93.5947 10.8236 93.4191 10.4554 93.2964 10.0322C93.1779 9.60905 93.1187 9.14779 93.1187 8.64844ZM94.8008 8.51514V8.64844C94.8008 8.94466 94.8262 9.22184 94.877 9.47998C94.9277 9.73812 95.0103 9.96663 95.1245 10.1655C95.2388 10.3602 95.3848 10.5125 95.5625 10.6226C95.7445 10.7326 95.9645 10.7876 96.2227 10.7876C96.5527 10.7876 96.8236 10.7157 97.0352 10.5718C97.251 10.4237 97.4181 10.2227 97.5366 9.96875C97.6551 9.71061 97.7313 9.42074 97.7651 9.09912V8.10254C97.7482 7.84863 97.7038 7.61377 97.6318 7.39795C97.5641 7.18213 97.4668 6.99593 97.3398 6.83936C97.2171 6.68278 97.0648 6.56006 96.8828 6.47119C96.7008 6.38232 96.485 6.33789 96.2354 6.33789C95.9772 6.33789 95.7572 6.39502 95.5752 6.50928C95.3932 6.6193 95.2451 6.77376 95.1309 6.97266C95.0166 7.17155 94.932 7.40218 94.877 7.66455C94.8262 7.92692 94.8008 8.21045 94.8008 8.51514ZM102.513 5.13184V12H100.831V5.13184H102.513ZM100.717 3.33545C100.717 3.08577 100.801 2.87842 100.971 2.71338C101.144 2.54834 101.377 2.46582 101.669 2.46582C101.961 2.46582 102.192 2.54834 102.361 2.71338C102.534 2.87842 102.621 3.08577 102.621 3.33545C102.621 3.58089 102.534 3.78613 102.361 3.95117C102.192 4.11621 101.961 4.19873 101.669 4.19873C101.377 4.19873 101.144 4.11621 100.971 3.95117C100.801 3.78613 100.717 3.58089 100.717 3.33545ZM106.125 11.2383L107.966 5.13184H109.762L107.007 13.041C106.944 13.2103 106.861 13.3944 106.76 13.5933C106.662 13.7922 106.531 13.9805 106.366 14.1582C106.201 14.3402 105.994 14.4883 105.744 14.6025C105.499 14.7168 105.2 14.7739 104.849 14.7739C104.697 14.7739 104.561 14.7633 104.443 14.7422C104.324 14.721 104.2 14.6935 104.068 14.6597V13.4028C104.111 13.4071 104.159 13.4092 104.214 13.4092C104.274 13.4134 104.324 13.4155 104.367 13.4155C104.612 13.4155 104.815 13.3859 104.976 13.3267C105.137 13.2716 105.266 13.1807 105.363 13.0537C105.465 12.931 105.549 12.7702 105.617 12.5713L106.125 11.2383ZM105.217 5.13184L106.772 10.1909L107.045 11.9619L105.89 12.1714L103.408 5.13184H105.217ZM114.256 10.54V7.37256C114.256 7.13981 114.216 6.9388 114.136 6.76953C114.055 6.60026 113.933 6.46908 113.768 6.37598C113.603 6.28288 113.393 6.23633 113.139 6.23633C112.915 6.23633 112.718 6.27441 112.549 6.35059C112.384 6.42676 112.257 6.53467 112.168 6.67432C112.079 6.80973 112.035 6.96631 112.035 7.14404H110.353C110.353 6.86051 110.42 6.5918 110.556 6.33789C110.691 6.07975 110.884 5.85124 111.133 5.65234C111.387 5.44922 111.69 5.29053 112.041 5.17627C112.396 5.06201 112.794 5.00488 113.234 5.00488C113.755 5.00488 114.218 5.09375 114.625 5.27148C115.035 5.44499 115.357 5.70736 115.589 6.05859C115.826 6.40983 115.945 6.85205 115.945 7.38525V10.3813C115.945 10.7241 115.966 11.0182 116.008 11.2637C116.055 11.5049 116.123 11.7144 116.211 11.8921V12H114.504C114.424 11.8265 114.362 11.6064 114.32 11.3398C114.278 11.069 114.256 10.8024 114.256 10.54ZM114.491 7.81689L114.504 8.81348H113.444C113.181 8.81348 112.951 8.84098 112.752 8.896C112.553 8.94678 112.39 9.02295 112.263 9.12451C112.136 9.22184 112.041 9.34033 111.978 9.47998C111.914 9.6154 111.882 9.76986 111.882 9.94336C111.882 10.1126 111.92 10.265 111.997 10.4004C112.077 10.5358 112.191 10.6437 112.339 10.7241C112.492 10.8003 112.669 10.8384 112.873 10.8384C113.169 10.8384 113.427 10.7791 113.647 10.6606C113.867 10.5379 114.038 10.3898 114.161 10.2163C114.284 10.0428 114.349 9.87777 114.358 9.72119L114.84 10.4448C114.781 10.6183 114.692 10.8024 114.574 10.9971C114.455 11.1917 114.303 11.3737 114.117 11.543C113.931 11.7122 113.706 11.8519 113.444 11.9619C113.181 12.0719 112.877 12.127 112.53 12.127C112.085 12.127 111.688 12.0381 111.336 11.8604C110.985 11.6826 110.708 11.4393 110.505 11.1304C110.302 10.8215 110.2 10.4702 110.2 10.0767C110.2 9.71273 110.268 9.39111 110.403 9.11182C110.539 8.83252 110.74 8.59766 111.006 8.40723C111.273 8.21257 111.603 8.06657 111.997 7.96924C112.394 7.86768 112.849 7.81689 113.361 7.81689H114.491ZM121.55 2.75781V12H119.811V2.75781H121.55ZM124.419 2.75781V4.13525H116.973V2.75781H124.419ZM127.942 12.127C127.421 12.127 126.954 12.0423 126.539 11.873C126.124 11.7038 125.771 11.4689 125.479 11.1685C125.191 10.8638 124.969 10.5104 124.812 10.1084C124.66 9.70215 124.584 9.26628 124.584 8.80078V8.54688C124.584 8.0179 124.66 7.5376 124.812 7.10596C124.965 6.67008 125.181 6.29557 125.46 5.98242C125.739 5.66927 126.074 5.42806 126.463 5.25879C126.852 5.08952 127.282 5.00488 127.751 5.00488C128.238 5.00488 128.668 5.0874 129.04 5.25244C129.412 5.41325 129.723 5.64176 129.973 5.93799C130.223 6.23421 130.411 6.58968 130.538 7.00439C130.665 7.41488 130.729 7.86979 130.729 8.36914V9.07373H125.346V7.91846H129.078V7.7915C129.07 7.5249 129.019 7.28158 128.926 7.06152C128.833 6.83724 128.689 6.65951 128.494 6.52832C128.299 6.3929 128.048 6.3252 127.739 6.3252C127.489 6.3252 127.271 6.38021 127.085 6.49023C126.903 6.59603 126.751 6.74837 126.628 6.94727C126.509 7.14193 126.421 7.37467 126.361 7.64551C126.302 7.91634 126.272 8.2168 126.272 8.54688V8.80078C126.272 9.08854 126.311 9.35514 126.387 9.60059C126.467 9.84603 126.583 10.0597 126.736 10.2417C126.892 10.4194 127.079 10.5591 127.294 10.6606C127.514 10.758 127.764 10.8066 128.043 10.8066C128.395 10.8066 128.712 10.7389 128.996 10.6035C129.283 10.4639 129.533 10.2586 129.745 9.98779L130.589 10.8638C130.445 11.0754 130.25 11.2785 130.005 11.4731C129.764 11.6678 129.472 11.8265 129.129 11.9492C128.786 12.0677 128.39 12.127 127.942 12.127ZM134.67 10.8066C134.907 10.8066 135.119 10.7601 135.305 10.667C135.491 10.5739 135.639 10.4427 135.75 10.2734C135.864 10.1042 135.925 9.90739 135.934 9.68311H137.514C137.506 10.1486 137.375 10.5654 137.121 10.9336C136.867 11.3018 136.528 11.5938 136.105 11.8096C135.686 12.0212 135.216 12.127 134.696 12.127C134.167 12.127 133.706 12.0381 133.312 11.8604C132.918 11.6826 132.59 11.4351 132.328 11.1177C132.07 10.8003 131.875 10.4321 131.744 10.0132C131.617 9.59424 131.554 9.14567 131.554 8.66748V8.46436C131.554 7.98617 131.617 7.5376 131.744 7.11865C131.875 6.69971 132.07 6.33154 132.328 6.01416C132.59 5.69678 132.918 5.44922 133.312 5.27148C133.706 5.09375 134.165 5.00488 134.689 5.00488C135.244 5.00488 135.73 5.11279 136.149 5.32861C136.573 5.54443 136.903 5.84912 137.14 6.24268C137.381 6.63623 137.506 7.09961 137.514 7.63281H135.934C135.925 7.38737 135.87 7.16732 135.769 6.97266C135.667 6.77799 135.523 6.62142 135.337 6.50293C135.151 6.38444 134.924 6.3252 134.658 6.3252C134.374 6.3252 134.137 6.38444 133.947 6.50293C133.761 6.62142 133.615 6.78434 133.509 6.9917C133.407 7.19482 133.335 7.42334 133.293 7.67725C133.255 7.92692 133.236 8.18929 133.236 8.46436V8.66748C133.236 8.94678 133.255 9.21338 133.293 9.46729C133.335 9.72119 133.407 9.94971 133.509 10.1528C133.615 10.3517 133.761 10.5104 133.947 10.6289C134.137 10.7474 134.378 10.8066 134.67 10.8066ZM140.275 2.25V12H138.593V2.25H140.275ZM140.009 8.31836H139.514C139.514 7.84017 139.577 7.40007 139.704 6.99805C139.831 6.59603 140.011 6.24691 140.244 5.95068C140.476 5.65023 140.754 5.41748 141.075 5.25244C141.401 5.0874 141.761 5.00488 142.154 5.00488C142.493 5.00488 142.8 5.05355 143.075 5.15088C143.354 5.24398 143.593 5.39421 143.792 5.60156C143.991 5.80892 144.143 6.07975 144.249 6.41406C144.359 6.74414 144.414 7.14616 144.414 7.62012V12H142.726V7.60742C142.726 7.29004 142.679 7.04036 142.586 6.8584C142.493 6.6722 142.36 6.5389 142.186 6.4585C142.017 6.37809 141.807 6.33789 141.558 6.33789C141.287 6.33789 141.054 6.39079 140.859 6.49658C140.665 6.59814 140.504 6.73991 140.377 6.92188C140.254 7.10384 140.161 7.31331 140.098 7.55029C140.038 7.78727 140.009 8.04329 140.009 8.31836ZM147.537 6.59814V12H145.861V5.13184H147.436L147.537 6.59814ZM147.271 8.31836H146.775C146.78 7.81901 146.847 7.36621 146.979 6.95996C147.11 6.55371 147.294 6.20459 147.531 5.9126C147.772 5.62061 148.058 5.39632 148.388 5.23975C148.718 5.08317 149.086 5.00488 149.492 5.00488C149.822 5.00488 150.121 5.05143 150.387 5.14453C150.654 5.23763 150.882 5.38574 151.073 5.58887C151.267 5.79199 151.416 6.05859 151.517 6.38867C151.623 6.71452 151.676 7.11654 151.676 7.59473V12H149.987V7.58203C149.987 7.26888 149.941 7.02132 149.848 6.83936C149.759 6.65739 149.628 6.52832 149.454 6.45215C149.285 6.37598 149.075 6.33789 148.826 6.33789C148.568 6.33789 148.341 6.39079 148.146 6.49658C147.956 6.59814 147.795 6.73991 147.664 6.92188C147.537 7.10384 147.44 7.31331 147.372 7.55029C147.304 7.78727 147.271 8.04329 147.271 8.31836ZM152.856 8.63574V8.50244C152.856 7.99886 152.928 7.53548 153.072 7.1123C153.216 6.6849 153.426 6.31462 153.701 6.00146C153.976 5.68831 154.312 5.44499 154.71 5.27148C155.108 5.09375 155.561 5.00488 156.068 5.00488C156.585 5.00488 157.042 5.09375 157.439 5.27148C157.841 5.44499 158.18 5.68831 158.455 6.00146C158.73 6.31462 158.94 6.6849 159.083 7.1123C159.227 7.53548 159.299 7.99886 159.299 8.50244V8.63574C159.299 9.13509 159.227 9.59847 159.083 10.0259C158.94 10.4491 158.73 10.8193 158.455 11.1367C158.18 11.4499 157.844 11.6932 157.446 11.8667C157.048 12.0402 156.593 12.127 156.081 12.127C155.573 12.127 155.118 12.0402 154.716 11.8667C154.314 11.6932 153.976 11.4499 153.701 11.1367C153.426 10.8193 153.216 10.4491 153.072 10.0259C152.928 9.59847 152.856 9.13509 152.856 8.63574ZM154.532 8.50244V8.63574C154.532 8.9362 154.562 9.21761 154.621 9.47998C154.68 9.74235 154.771 9.97298 154.894 10.1719C155.017 10.3708 155.175 10.5273 155.37 10.6416C155.569 10.7516 155.806 10.8066 156.081 10.8066C156.352 10.8066 156.585 10.7516 156.779 10.6416C156.974 10.5273 157.133 10.3708 157.255 10.1719C157.382 9.97298 157.475 9.74235 157.535 9.47998C157.594 9.21761 157.624 8.9362 157.624 8.63574V8.50244C157.624 8.20622 157.594 7.92904 157.535 7.6709C157.475 7.40853 157.382 7.1779 157.255 6.979C157.133 6.77588 156.972 6.61719 156.773 6.50293C156.578 6.38444 156.343 6.3252 156.068 6.3252C155.798 6.3252 155.565 6.38444 155.37 6.50293C155.175 6.61719 155.017 6.77588 154.894 6.979C154.771 7.1779 154.68 7.40853 154.621 7.6709C154.562 7.92904 154.532 8.20622 154.532 8.50244ZM162.295 2.25V12H160.613V2.25H162.295ZM163.597 8.63574V8.50244C163.597 7.99886 163.669 7.53548 163.812 7.1123C163.956 6.6849 164.166 6.31462 164.441 6.00146C164.716 5.68831 165.052 5.44499 165.45 5.27148C165.848 5.09375 166.301 5.00488 166.809 5.00488C167.325 5.00488 167.782 5.09375 168.18 5.27148C168.582 5.44499 168.92 5.68831 169.195 6.00146C169.47 6.31462 169.68 6.6849 169.824 7.1123C169.968 7.53548 170.04 7.99886 170.04 8.50244V8.63574C170.04 9.13509 169.968 9.59847 169.824 10.0259C169.68 10.4491 169.47 10.8193 169.195 11.1367C168.92 11.4499 168.584 11.6932 168.186 11.8667C167.788 12.0402 167.333 12.127 166.821 12.127C166.313 12.127 165.859 12.0402 165.457 11.8667C165.055 11.6932 164.716 11.4499 164.441 11.1367C164.166 10.8193 163.956 10.4491 163.812 10.0259C163.669 9.59847 163.597 9.13509 163.597 8.63574ZM165.272 8.50244V8.63574C165.272 8.9362 165.302 9.21761 165.361 9.47998C165.421 9.74235 165.512 9.97298 165.634 10.1719C165.757 10.3708 165.916 10.5273 166.11 10.6416C166.309 10.7516 166.546 10.8066 166.821 10.8066C167.092 10.8066 167.325 10.7516 167.52 10.6416C167.714 10.5273 167.873 10.3708 167.996 10.1719C168.123 9.97298 168.216 9.74235 168.275 9.47998C168.334 9.21761 168.364 8.9362 168.364 8.63574V8.50244C168.364 8.20622 168.334 7.92904 168.275 7.6709C168.216 7.40853 168.123 7.1779 167.996 6.979C167.873 6.77588 167.712 6.61719 167.513 6.50293C167.319 6.38444 167.084 6.3252 166.809 6.3252C166.538 6.3252 166.305 6.38444 166.11 6.50293C165.916 6.61719 165.757 6.77588 165.634 6.979C165.512 7.1779 165.421 7.40853 165.361 7.6709C165.302 7.92904 165.272 8.20622 165.272 8.50244ZM175.625 5.13184H177.149V11.7905C177.149 12.4126 177.014 12.9395 176.743 13.3711C176.476 13.807 176.102 14.137 175.619 14.3613C175.137 14.5898 174.576 14.7041 173.937 14.7041C173.662 14.7041 173.364 14.666 173.042 14.5898C172.725 14.5137 172.418 14.3931 172.122 14.228C171.83 14.0672 171.586 13.8577 171.392 13.5996L172.147 12.6094C172.375 12.876 172.634 13.077 172.921 13.2124C173.209 13.3521 173.52 13.4219 173.854 13.4219C174.193 13.4219 174.481 13.3584 174.718 13.2314C174.959 13.1087 175.143 12.9268 175.27 12.6855C175.401 12.4486 175.467 12.1566 175.467 11.8096V6.69971L175.625 5.13184ZM170.985 8.64844V8.51514C170.985 7.9904 171.049 7.51432 171.176 7.08691C171.303 6.65527 171.485 6.28499 171.722 5.97607C171.963 5.66715 172.253 5.42806 172.591 5.25879C172.934 5.08952 173.319 5.00488 173.747 5.00488C174.199 5.00488 174.58 5.0874 174.889 5.25244C175.202 5.41748 175.46 5.65234 175.664 5.95703C175.871 6.26172 176.032 6.62354 176.146 7.04248C176.264 7.45719 176.355 7.91423 176.419 8.41357V8.77539C176.36 9.26204 176.264 9.7085 176.133 10.1147C176.006 10.521 175.837 10.8765 175.625 11.1812C175.414 11.4816 175.152 11.7144 174.838 11.8794C174.525 12.0444 174.157 12.127 173.734 12.127C173.311 12.127 172.93 12.0402 172.591 11.8667C172.253 11.6932 171.963 11.4499 171.722 11.1367C171.485 10.8236 171.303 10.4554 171.176 10.0322C171.049 9.60905 170.985 9.14779 170.985 8.64844ZM172.661 8.51514V8.64844C172.661 8.94466 172.691 9.22184 172.75 9.47998C172.809 9.73812 172.9 9.96663 173.023 10.1655C173.146 10.3602 173.3 10.5125 173.486 10.6226C173.673 10.7326 173.895 10.7876 174.153 10.7876C174.5 10.7876 174.783 10.7157 175.003 10.5718C175.228 10.4237 175.397 10.2227 175.511 9.96875C175.63 9.71061 175.706 9.42074 175.74 9.09912V8.10254C175.719 7.84863 175.672 7.61377 175.6 7.39795C175.532 7.18213 175.437 6.99593 175.314 6.83936C175.192 6.68278 175.035 6.56006 174.845 6.47119C174.654 6.38232 174.428 6.33789 174.166 6.33789C173.912 6.33789 173.689 6.39502 173.499 6.50928C173.309 6.6193 173.152 6.77376 173.029 6.97266C172.907 7.17155 172.813 7.40218 172.75 7.66455C172.691 7.92692 172.661 8.21045 172.661 8.51514ZM180.437 5.13184V12H178.755V5.13184H180.437ZM178.641 3.33545C178.641 3.08577 178.725 2.87842 178.895 2.71338C179.068 2.54834 179.301 2.46582 179.593 2.46582C179.885 2.46582 180.115 2.54834 180.285 2.71338C180.458 2.87842 180.545 3.08577 180.545 3.33545C180.545 3.58089 180.458 3.78613 180.285 3.95117C180.115 4.11621 179.885 4.19873 179.593 4.19873C179.301 4.19873 179.068 4.11621 178.895 3.95117C178.725 3.78613 178.641 3.58089 178.641 3.33545ZM185.122 12.127C184.601 12.127 184.133 12.0423 183.719 11.873C183.304 11.7038 182.951 11.4689 182.659 11.1685C182.371 10.8638 182.149 10.5104 181.992 10.1084C181.84 9.70215 181.764 9.26628 181.764 8.80078V8.54688C181.764 8.0179 181.84 7.5376 181.992 7.10596C182.145 6.67008 182.36 6.29557 182.64 5.98242C182.919 5.66927 183.253 5.42806 183.643 5.25879C184.032 5.08952 184.461 5.00488 184.931 5.00488C185.418 5.00488 185.847 5.0874 186.22 5.25244C186.592 5.41325 186.903 5.64176 187.153 5.93799C187.403 6.23421 187.591 6.58968 187.718 7.00439C187.845 7.41488 187.908 7.86979 187.908 8.36914V9.07373H182.525V7.91846H186.258V7.7915C186.249 7.5249 186.199 7.28158 186.105 7.06152C186.012 6.83724 185.868 6.65951 185.674 6.52832C185.479 6.3929 185.227 6.3252 184.918 6.3252C184.669 6.3252 184.451 6.38021 184.265 6.49023C184.083 6.59603 183.93 6.74837 183.808 6.94727C183.689 7.14193 183.6 7.37467 183.541 7.64551C183.482 7.91634 183.452 8.2168 183.452 8.54688V8.80078C183.452 9.08854 183.49 9.35514 183.566 9.60059C183.647 9.84603 183.763 10.0597 183.916 10.2417C184.072 10.4194 184.258 10.5591 184.474 10.6606C184.694 10.758 184.944 10.8066 185.223 10.8066C185.574 10.8066 185.892 10.7389 186.175 10.6035C186.463 10.4639 186.713 10.2586 186.924 9.98779L187.769 10.8638C187.625 11.0754 187.43 11.2785 187.185 11.4731C186.943 11.6678 186.651 11.8265 186.309 11.9492C185.966 12.0677 185.57 12.127 185.122 12.127ZM192.809 10.1211C192.809 9.97721 192.771 9.84814 192.694 9.73389C192.618 9.61963 192.474 9.51595 192.263 9.42285C192.055 9.32552 191.751 9.23454 191.349 9.1499C190.993 9.07373 190.665 8.97852 190.365 8.86426C190.064 8.75 189.806 8.61247 189.59 8.45166C189.375 8.28662 189.205 8.09408 189.083 7.87402C188.964 7.64974 188.905 7.3916 188.905 7.09961C188.905 6.81608 188.966 6.54948 189.089 6.2998C189.212 6.0459 189.389 5.82373 189.622 5.6333C189.855 5.43864 190.138 5.2863 190.473 5.17627C190.807 5.06201 191.184 5.00488 191.603 5.00488C192.187 5.00488 192.688 5.1001 193.107 5.29053C193.53 5.48096 193.854 5.74333 194.078 6.07764C194.302 6.40771 194.415 6.78011 194.415 7.19482H192.739C192.739 7.01286 192.696 6.84782 192.612 6.69971C192.531 6.5516 192.407 6.43311 192.237 6.34424C192.068 6.25114 191.854 6.20459 191.596 6.20459C191.363 6.20459 191.167 6.24268 191.006 6.31885C190.849 6.39502 190.731 6.49447 190.65 6.61719C190.57 6.73991 190.53 6.87533 190.53 7.02344C190.53 7.13346 190.551 7.23291 190.593 7.32178C190.64 7.40641 190.714 7.4847 190.815 7.55664C190.917 7.62858 191.055 7.69417 191.228 7.75342C191.406 7.81266 191.624 7.86979 191.882 7.9248C192.394 8.02637 192.84 8.16178 193.221 8.33105C193.606 8.49609 193.907 8.71615 194.123 8.99121C194.338 9.26628 194.446 9.61751 194.446 10.0449C194.446 10.3496 194.381 10.6289 194.25 10.8828C194.118 11.1325 193.928 11.3504 193.678 11.5366C193.429 11.7228 193.13 11.8688 192.783 11.9746C192.436 12.0762 192.045 12.127 191.609 12.127C190.978 12.127 190.445 12.0148 190.009 11.7905C189.573 11.562 189.243 11.2743 189.019 10.9272C188.795 10.576 188.683 10.2121 188.683 9.83545H190.289C190.301 10.1021 190.373 10.3158 190.504 10.4766C190.636 10.6374 190.801 10.7537 191 10.8257C191.203 10.8934 191.416 10.9272 191.641 10.9272C191.895 10.9272 192.108 10.8934 192.282 10.8257C192.455 10.7537 192.586 10.6585 192.675 10.54C192.764 10.4173 192.809 10.2777 192.809 10.1211Z" fill="#F5F5F5"/>
<path d="M64.413 27.3836H65.9151C65.875 27.9153 65.7275 28.3869 65.4726 28.7983C65.2177 29.2062 64.8627 29.5266 64.4075 29.7597C63.9523 29.9927 63.4007 30.1092 62.7525 30.1092C62.2536 30.1092 61.8039 30.0218 61.4033 29.8471C61.0064 29.6686 60.6659 29.4156 60.3819 29.0878C60.1015 28.7565 59.8867 28.3595 59.7374 27.8971C59.5881 27.431 59.5134 26.9084 59.5134 26.3294V25.7232C59.5134 25.1442 59.5899 24.6216 59.7428 24.1555C59.8958 23.6894 60.1143 23.2925 60.3983 22.9648C60.686 22.6334 61.0301 22.3785 61.4306 22.2001C61.8348 22.0216 62.2864 21.9324 62.7853 21.9324C63.4334 21.9324 63.9815 22.0526 64.4294 22.2929C64.8773 22.5296 65.225 22.8555 65.4726 23.2707C65.7202 23.6858 65.8695 24.1628 65.9205 24.7017H64.4184C64.3893 24.3667 64.3165 24.0827 64.1999 23.8496C64.0871 23.6166 63.9159 23.44 63.6865 23.3198C63.4607 23.196 63.1603 23.1341 62.7853 23.1341C62.4939 23.1341 62.2372 23.1887 62.0151 23.298C61.7966 23.4072 61.6145 23.5711 61.4689 23.7896C61.3232 24.0044 61.214 24.2739 61.1412 24.598C61.0683 24.9184 61.0319 25.2898 61.0319 25.7122V26.3294C61.0319 26.7336 61.0647 27.096 61.1302 27.4164C61.1958 27.7369 61.2977 28.0081 61.4361 28.2303C61.5745 28.4524 61.7529 28.6217 61.9714 28.7382C62.1899 28.8548 62.4502 28.913 62.7525 28.913C63.1203 28.913 63.4189 28.8548 63.6483 28.7382C63.8813 28.6217 64.0579 28.4506 64.1781 28.2248C64.3019 27.999 64.3802 27.7187 64.413 27.3836ZM66.7125 27.1051V26.9904C66.7125 26.557 66.7744 26.1583 66.8982 25.7942C67.022 25.4264 67.2023 25.1078 67.439 24.8383C67.6757 24.5688 67.9652 24.3594 68.3075 24.2101C68.6498 24.0572 69.0394 23.9807 69.4764 23.9807C69.9206 23.9807 70.3139 24.0572 70.6562 24.2101C71.0021 24.3594 71.2934 24.5688 71.5301 24.8383C71.7668 25.1078 71.9471 25.4264 72.0709 25.7942C72.1947 26.1583 72.2566 26.557 72.2566 26.9904V27.1051C72.2566 27.5348 72.1947 27.9335 72.0709 28.3013C71.9471 28.6654 71.7668 28.984 71.5301 29.2572C71.2934 29.5266 71.0039 29.736 70.6616 29.8853C70.3194 30.0346 69.9279 30.1092 69.4873 30.1092C69.0503 30.1092 68.6589 30.0346 68.3129 29.8853C67.967 29.736 67.6757 29.5266 67.439 29.2572C67.2023 28.984 67.022 28.6654 66.8982 28.3013C66.7744 27.9335 66.7125 27.5348 66.7125 27.1051ZM68.1545 26.9904V27.1051C68.1545 27.3636 68.18 27.6058 68.231 27.8315C68.282 28.0573 68.3603 28.2558 68.4659 28.4269C68.5715 28.5981 68.708 28.7328 68.8755 28.8311C69.0467 28.9258 69.2506 28.9731 69.4873 28.9731C69.7203 28.9731 69.9206 28.9258 70.0881 28.8311C70.2556 28.7328 70.3922 28.5981 70.4978 28.4269C70.607 28.2558 70.6871 28.0573 70.7381 27.8315C70.7891 27.6058 70.8146 27.3636 70.8146 27.1051V26.9904C70.8146 26.7355 70.7891 26.497 70.7381 26.2748C70.6871 26.0491 70.607 25.8506 70.4978 25.6795C70.3922 25.5047 70.2538 25.3681 70.0827 25.2698C69.9152 25.1678 69.7131 25.1169 69.4764 25.1169C69.2433 25.1169 69.043 25.1678 68.8755 25.2698C68.708 25.3681 68.5715 25.5047 68.4659 25.6795C68.3603 25.8506 68.282 26.0491 68.231 26.2748C68.18 26.497 68.1545 26.7355 68.1545 26.9904ZM74.7473 25.2261V32.2722H73.2999V24.09H74.6381L74.7473 25.2261ZM78.5435 26.9849V27.0996C78.5435 27.5293 78.4925 27.928 78.3906 28.2958C78.2922 28.66 78.1466 28.9786 77.9536 29.2517C77.7606 29.5212 77.5203 29.7324 77.2326 29.8853C76.9486 30.0346 76.6208 30.1092 76.2494 30.1092C75.8853 30.1092 75.5685 30.0401 75.299 29.9017C75.0295 29.7597 74.8019 29.5594 74.6162 29.3008C74.4305 29.0423 74.2812 28.7419 74.1683 28.3996C74.0591 28.0537 73.9772 27.6768 73.9225 27.2689V26.903C73.9772 26.4696 74.0591 26.0764 74.1683 25.7232C74.2812 25.3663 74.4305 25.0586 74.6162 24.8001C74.8019 24.5379 75.0277 24.3358 75.2935 24.1938C75.563 24.0517 75.878 23.9807 76.2385 23.9807C76.6135 23.9807 76.9431 24.0517 77.2271 24.1938C77.5148 24.3358 77.757 24.5397 77.9536 24.8055C78.1502 25.0713 78.2977 25.3881 78.396 25.7559C78.4943 26.1237 78.5435 26.5334 78.5435 26.9849ZM77.096 27.0996V26.9849C77.096 26.7227 77.0724 26.4806 77.025 26.2584C76.9777 26.0327 76.9049 25.836 76.8065 25.6685C76.7082 25.4974 76.5808 25.3645 76.4242 25.2698C76.2676 25.1751 76.0783 25.1278 75.8561 25.1278C75.634 25.1278 75.4428 25.1642 75.2826 25.237C75.1224 25.3099 74.9913 25.4136 74.8893 25.5484C74.7874 25.6831 74.7073 25.8433 74.649 26.029C74.5944 26.2111 74.558 26.4132 74.5398 26.6353V27.542C74.5725 27.8115 74.6363 28.0537 74.7309 28.2685C74.8256 28.4833 74.964 28.6545 75.1461 28.7819C75.3318 28.9094 75.5721 28.9731 75.8671 28.9731C76.0892 28.9731 76.2785 28.924 76.4351 28.8256C76.5917 28.7273 76.7191 28.5926 76.8175 28.4214C76.9158 28.2467 76.9868 28.0464 77.0305 27.8206C77.0742 27.5948 77.096 27.3545 77.096 27.0996ZM81.2636 29.3445L82.8477 24.09H84.3934L82.0229 30.8958C81.9683 31.0414 81.8972 31.1998 81.8099 31.371C81.7261 31.5421 81.6132 31.7042 81.4712 31.8571C81.3292 32.0137 81.1508 32.1412 80.9359 32.2395C80.7247 32.3378 80.468 32.387 80.1658 32.387C80.0347 32.387 79.9181 32.3778 79.8162 32.3596C79.7142 32.3414 79.6068 32.3178 79.4939 32.2886V31.2071C79.5303 31.2108 79.5722 31.2126 79.6195 31.2126C79.6705 31.2162 79.7142 31.2181 79.7506 31.2181C79.9618 31.2181 80.1366 31.1926 80.275 31.1416C80.4134 31.0942 80.5244 31.016 80.6082 30.9067C80.6956 30.8011 80.7684 30.6627 80.8267 30.4916L81.2636 29.3445ZM80.4826 24.09L81.8208 28.4433L82.0556 29.9672L81.0615 30.1475L78.9258 24.09H80.4826ZM86.5346 25.2971V30H85.0926V24.09H86.4581L86.5346 25.2971ZM88.3316 24.0517L88.3098 25.3954C88.2297 25.3809 88.1386 25.3699 88.0367 25.3627C87.9384 25.3554 87.8455 25.3517 87.7581 25.3517C87.536 25.3517 87.3412 25.3827 87.1737 25.4446C87.0062 25.5028 86.866 25.5884 86.7531 25.7013C86.6438 25.8142 86.5601 25.9526 86.5018 26.1164C86.4436 26.2766 86.4108 26.4587 86.4035 26.6626L86.0922 26.6244C86.0922 26.2493 86.1304 25.9016 86.2069 25.5811C86.2833 25.2607 86.3944 24.9803 86.5401 24.74C86.6857 24.4996 86.8678 24.3139 87.0863 24.1828C87.3084 24.0481 87.5633 23.9807 87.851 23.9807C87.9311 23.9807 88.0167 23.988 88.1077 24.0026C88.2024 24.0135 88.277 24.0299 88.3316 24.0517ZM90.653 24.09V30H89.2056V24.09H90.653ZM89.1073 22.5442C89.1073 22.3293 89.1801 22.1509 89.3257 22.0089C89.475 21.8669 89.6753 21.7959 89.9266 21.7959C90.1778 21.7959 90.3763 21.8669 90.522 22.0089C90.6712 22.1509 90.7459 22.3293 90.7459 22.5442C90.7459 22.7554 90.6712 22.932 90.522 23.074C90.3763 23.216 90.1778 23.287 89.9266 23.287C89.6753 23.287 89.475 23.216 89.3257 23.074C89.1801 22.932 89.1073 22.7554 89.1073 22.5442ZM95.7874 24.09H97.0984V29.8197C97.0984 30.355 96.9818 30.8084 96.7488 31.1798C96.5194 31.5549 96.1971 31.8389 95.782 32.0319C95.3669 32.2285 94.8844 32.3269 94.3345 32.3269C94.0978 32.3269 93.8411 32.2941 93.5644 32.2285C93.2913 32.163 93.0272 32.0592 92.7723 31.9172C92.5211 31.7788 92.3117 31.5986 92.1442 31.3765L92.7942 30.5244C92.9908 30.7538 93.213 30.9267 93.4606 31.0433C93.7082 31.1634 93.9758 31.2235 94.2635 31.2235C94.5548 31.2235 94.8024 31.1689 95.0064 31.0597C95.2139 30.9541 95.3723 30.7975 95.4816 30.5899C95.5944 30.386 95.6509 30.1347 95.6509 29.8361V25.4391L95.7874 24.09ZM91.7946 27.116V27.0013C91.7946 26.5498 91.8492 26.1401 91.9585 25.7723C92.0677 25.4009 92.2243 25.0823 92.4282 24.8164C92.6358 24.5506 92.8852 24.3449 93.1765 24.1992C93.4715 24.0536 93.8029 23.9807 94.1707 23.9807C94.5603 23.9807 94.888 24.0517 95.1538 24.1938C95.4233 24.3358 95.6454 24.5379 95.8202 24.8001C95.9986 25.0622 96.137 25.3736 96.2353 25.7341C96.3373 26.0909 96.4156 26.4842 96.4702 26.9139V27.2252C96.4192 27.644 96.3373 28.0282 96.2244 28.3777C96.1152 28.7273 95.9695 29.0332 95.7874 29.2954C95.6054 29.5539 95.3796 29.7542 95.1101 29.8962C94.8407 30.0382 94.5239 30.1092 94.1597 30.1092C93.7956 30.1092 93.4679 30.0346 93.1765 29.8853C92.8852 29.736 92.6358 29.5266 92.4282 29.2572C92.2243 28.9877 92.0677 28.6709 91.9585 28.3067C91.8492 27.9426 91.7946 27.5457 91.7946 27.116ZM93.2366 27.0013V27.116C93.2366 27.3709 93.2621 27.6094 93.3131 27.8315C93.3641 28.0537 93.4424 28.2503 93.548 28.4214C93.6536 28.5889 93.7865 28.72 93.9467 28.8147C94.1069 28.9094 94.2981 28.9567 94.5202 28.9567C94.8188 28.9567 95.0628 28.8948 95.2522 28.771C95.4452 28.6436 95.5908 28.4706 95.6891 28.2521C95.7911 28.03 95.8566 27.7806 95.8858 27.5038V26.6463C95.8676 26.4278 95.8275 26.2257 95.7656 26.04C95.7073 25.8542 95.6254 25.694 95.5198 25.5593C95.4142 25.4246 95.2795 25.319 95.1156 25.2425C94.9517 25.166 94.7569 25.1278 94.5312 25.1278C94.3127 25.1278 94.1215 25.1769 93.9576 25.2753C93.7938 25.3699 93.659 25.5028 93.5534 25.674C93.4478 25.8451 93.3677 26.0436 93.3131 26.2694C93.2621 26.4951 93.2366 26.7391 93.2366 27.0013ZM99.813 21.6102V30H98.3656V21.6102H99.813ZM99.5836 26.832H99.1576C99.1576 26.4205 99.2122 26.0418 99.3214 25.6958C99.4307 25.3499 99.5854 25.0495 99.7857 24.7946C99.986 24.536 100.225 24.3358 100.501 24.1938C100.782 24.0517 101.091 23.9807 101.43 23.9807C101.721 23.9807 101.985 24.0226 102.222 24.1064C102.462 24.1865 102.668 24.3157 102.839 24.4942C103.01 24.6726 103.141 24.9057 103.232 25.1933C103.327 25.4774 103.374 25.8233 103.374 26.2311V30H101.921V26.2202C101.921 25.9471 101.881 25.7323 101.801 25.5757C101.721 25.4155 101.606 25.3007 101.457 25.2316C101.311 25.1624 101.131 25.1278 100.916 25.1278C100.683 25.1278 100.483 25.1733 100.316 25.2643C100.148 25.3517 100.01 25.4737 99.9004 25.6303C99.7948 25.7869 99.7147 25.9671 99.6601 26.171C99.6091 26.375 99.5836 26.5953 99.5836 26.832ZM107.444 24.09V25.1278H104.057V24.09H107.444ZM104.964 22.637H106.411V28.2958C106.411 28.4706 106.435 28.6053 106.482 28.7C106.53 28.7947 106.601 28.8584 106.695 28.8912C106.79 28.924 106.903 28.9403 107.034 28.9403C107.129 28.9403 107.216 28.9349 107.296 28.924C107.376 28.913 107.444 28.9021 107.498 28.8912L107.504 29.9727C107.384 30.0127 107.247 30.0455 107.094 30.071C106.945 30.0965 106.775 30.1092 106.586 30.1092C106.262 30.1092 105.978 30.0546 105.734 29.9454C105.49 29.8325 105.301 29.6522 105.166 29.4046C105.031 29.1534 104.964 28.822 104.964 28.4105V22.637ZM114.064 26.0236V27.1652H111.076V26.0236H114.064ZM123.393 28.8639V30H118.007V29.0277L120.591 26.2366C120.86 25.9307 121.073 25.6649 121.23 25.4391C121.387 25.2134 121.498 25.0094 121.563 24.8274C121.632 24.6417 121.667 24.465 121.667 24.2975C121.667 24.0536 121.623 23.8405 121.536 23.6585C121.449 23.4728 121.321 23.3289 121.154 23.227C120.99 23.125 120.788 23.074 120.547 23.074C120.281 23.074 120.054 23.1359 119.865 23.2597C119.679 23.3799 119.537 23.5474 119.438 23.7622C119.344 23.9771 119.296 24.2229 119.296 24.4996H117.849C117.849 24.0299 117.958 23.602 118.177 23.216C118.395 22.8264 118.708 22.5151 119.116 22.282C119.524 22.049 120.008 21.9324 120.569 21.9324C121.115 21.9324 121.578 22.0235 121.957 22.2055C122.335 22.384 122.623 22.6389 122.82 22.9702C123.016 23.3016 123.114 23.6967 123.114 24.1555C123.114 24.4104 123.073 24.6617 122.989 24.9093C122.905 25.1569 122.787 25.4027 122.634 25.6467C122.485 25.887 122.306 26.131 122.099 26.3786C121.891 26.6262 121.66 26.8793 121.405 27.1378L119.854 28.8639H123.393ZM129.664 25.3408V26.679C129.664 27.2908 129.602 27.8133 129.478 28.2467C129.354 28.68 129.176 29.035 128.943 29.3118C128.71 29.5849 128.431 29.787 128.107 29.9181C127.783 30.0455 127.422 30.1092 127.025 30.1092C126.709 30.1092 126.414 30.0692 126.14 29.9891C125.867 29.9053 125.622 29.7779 125.403 29.6067C125.188 29.4319 125.003 29.2098 124.846 28.9403C124.693 28.6709 124.575 28.3486 124.491 27.9735C124.411 27.5985 124.371 27.167 124.371 26.679V25.3408C124.371 24.729 124.433 24.2083 124.556 23.7786C124.684 23.3489 124.864 22.9975 125.097 22.7244C125.33 22.4513 125.609 22.2529 125.933 22.1291C126.257 22.0016 126.618 21.9379 127.014 21.9379C127.335 21.9379 127.63 21.978 127.899 22.0581C128.172 22.1382 128.416 22.2638 128.631 22.435C128.85 22.6025 129.035 22.8209 129.188 23.0904C129.341 23.3562 129.458 23.6767 129.538 24.0517C129.622 24.4232 129.664 24.8529 129.664 25.3408ZM128.222 26.8757V25.1387C128.222 24.8328 128.203 24.567 128.167 24.3412C128.134 24.1118 128.085 23.917 128.019 23.7568C127.954 23.5966 127.872 23.4673 127.774 23.369C127.675 23.267 127.562 23.1924 127.435 23.145C127.308 23.0977 127.167 23.074 127.014 23.074C126.825 23.074 126.656 23.1123 126.506 23.1887C126.357 23.2616 126.232 23.3781 126.13 23.5383C126.028 23.6985 125.949 23.9115 125.895 24.1774C125.844 24.4396 125.818 24.76 125.818 25.1387V26.8757C125.818 27.1815 125.835 27.4492 125.867 27.6786C125.904 27.908 125.955 28.1046 126.02 28.2685C126.09 28.4324 126.171 28.5671 126.266 28.6727C126.364 28.7747 126.477 28.8511 126.605 28.9021C126.732 28.9495 126.872 28.9731 127.025 28.9731C127.218 28.9731 127.388 28.9349 127.533 28.8584C127.683 28.7819 127.808 28.6618 127.91 28.4979C128.012 28.3304 128.089 28.1137 128.14 27.8479C128.194 27.5785 128.222 27.2544 128.222 26.8757ZM136.174 28.8639V30H130.789V29.0277L133.372 26.2366C133.642 25.9307 133.855 25.6649 134.011 25.4391C134.168 25.2134 134.279 25.0094 134.345 24.8274C134.414 24.6417 134.448 24.465 134.448 24.2975C134.448 24.0536 134.405 23.8405 134.317 23.6585C134.23 23.4728 134.102 23.3289 133.935 23.227C133.771 23.125 133.569 23.074 133.329 23.074C133.063 23.074 132.835 23.1359 132.646 23.2597C132.46 23.3799 132.318 23.5474 132.22 23.7622C132.125 23.9771 132.078 24.2229 132.078 24.4996H130.63C130.63 24.0299 130.74 23.602 130.958 23.216C131.177 22.8264 131.49 22.5151 131.898 22.282C132.305 22.049 132.79 21.9324 133.351 21.9324C133.897 21.9324 134.359 22.0235 134.738 22.2055C135.117 22.384 135.404 22.6389 135.601 22.9702C135.798 23.3016 135.896 23.6967 135.896 24.1555C135.896 24.4104 135.854 24.6617 135.77 24.9093C135.686 25.1569 135.568 25.4027 135.415 25.6467C135.266 25.887 135.087 26.131 134.88 26.3786C134.672 26.6262 134.441 26.8793 134.186 27.1378L132.635 28.8639H136.174ZM142.565 28.8639V30H137.179V29.0277L139.763 26.2366C140.033 25.9307 140.246 25.6649 140.402 25.4391C140.559 25.2134 140.67 25.0094 140.735 24.8274C140.804 24.6417 140.839 24.465 140.839 24.2975C140.839 24.0536 140.795 23.8405 140.708 23.6585C140.621 23.4728 140.493 23.3289 140.326 23.227C140.162 23.125 139.96 23.074 139.719 23.074C139.454 23.074 139.226 23.1359 139.037 23.2597C138.851 23.3799 138.709 23.5474 138.611 23.7622C138.516 23.9771 138.469 24.2229 138.469 24.4996H137.021C137.021 24.0299 137.13 23.602 137.349 23.216C137.567 22.8264 137.88 22.5151 138.288 22.282C138.696 22.049 139.18 21.9324 139.741 21.9324C140.287 21.9324 140.75 22.0235 141.129 22.2055C141.507 22.384 141.795 22.6389 141.992 22.9702C142.188 23.3016 142.287 23.6967 142.287 24.1555C142.287 24.4104 142.245 24.6617 142.161 24.9093C142.077 25.1569 141.959 25.4027 141.806 25.6467C141.657 25.887 141.478 26.131 141.271 26.3786C141.063 26.6262 140.832 26.8793 140.577 27.1378L139.026 28.8639H142.565Z" fill="#F5F5F5"/>
<g clip-path="url(#clip0_114_2057)">
<path d="M11.0881 0.0712891L0 18.2769H22.1761L11.0881 0.0712891Z" fill="#F5F5F5"/>
<path d="M43.4284 0.0712891H24.0243V18.2769H43.4284V0.0712891Z" fill="#F5F5F5"/>
<path d="M43.4272 30.1118C43.4272 34.1315 40.1169 37.3926 36.0354 37.3926C31.9533 37.3926 28.6431 34.1315 28.6431 30.1118C28.6431 26.0893 31.9533 22.8281 36.0354 22.8281C40.1169 22.8281 43.4272 26.0893 43.4272 30.1118Z" fill="#F5F5F5"/>
<path d="M19.656 22.8281H4.36821C1.96691 22.8281 0 24.0202 0 25.476V34.7447C0 36.2009 1.96691 37.3926 4.36821 37.3926H19.656C22.0579 37.3926 24.0241 36.2009 24.0241 34.7447V25.476C24.0241 24.0202 22.0579 22.8281 19.656 22.8281Z" fill="#F5F5F5"/>
</g>
<defs>
<clipPath id="clip0_114_2057">
<rect width="43.4286" height="38" fill="white"/>
</clipPath>
</defs>
</svg>
